<?xml version="1.0" standalone="no"?>
<!DOCTYPE svg PUBLIC "-//W3C//DTD SVG 20010904//EN"
 "http://www.w3.org/TR/2001/REC-SVG-20010904/DTD/svg10.dtd">
<svg version="1.0" xmlns="http://www.w3.org/2000/svg"
 width="501.000000pt" height="498.000000pt" viewBox="0 0 501.000000 498.000000"
 preserveAspectRatio="xMidYMid meet">

<g transform="translate(0.000000,498.000000) scale(0.100000,-0.100000)"
fill="#000000" stroke="none">
<path d="M2280 4944 c-302 -28 -614 -112 -865 -233 -274 -132 -455 -261 -671
-476 -290 -289 -482 -594 -603 -960 -179 -541 -173 -1089 19 -1626 120 -335
310 -631 580 -899 330 -329 705 -540 1153 -649 550 -134 1137 -72 1642 174
156 75 376 216 506 322 96 78 302 292 377 392 137 182 274 426 357 636 38 95
109 385 129 522 54 376 11 809 -116 1172 -118 339 -362 704 -654 980 -341 323
-822 552 -1314 626 -101 16 -446 27 -540 19z m460 -1040 c81 -17 131 -122 95
-198 -64 -134 -257 -101 -272 47 -6 58 21 106 77 135 49 24 53 25 100 16z
m-458 -120 c21 -44 -13 -74 -68 -60 -18 5 -24 13 -24 34 0 36 17 52 52 52 21
0 32 -7 40 -26z m22 -408 c23 -10 40 -27 56 -61 27 -56 23 -100 -14 -156 -48
-72 -153 -74 -215 -4 -105 120 22 284 173 221z m472 -1 c25 -10 40 -26 54 -57
25 -55 25 -82 -1 -134 -20 -43 -81 -84 -124 -84 -43 0 -104 41 -124 84 -26 53
-26 79 -1 132 33 68 115 93 196 59z m13 -522 c117 -86 42 -279 -100 -260 -141
19 -174 204 -48 270 42 22 110 18 148 -10z m-505 -106 c8 -23 6 -31 -12 -49
-30 -30 -75 -16 -80 25 -5 38 15 59 52 55 23 -2 33 -10 40 -31z m-174 -887 c0
-495 0 -494 60 -525 66 -34 138 -10 164 55 14 35 16 98 16 480 l0 440 120 0
119 0 3 -452 c3 -493 2 -482 61 -518 41 -25 84 -25 121 -1 56 37 55 29 56 519
l0 452 123 0 122 0 -2 -462 c-3 -550 -4 -552 -90 -648 -64 -70 -123 -104 -211
-120 -97 -17 -214 13 -278 72 -22 20 -22 20 -64 -11 -152 -110 -364 -77 -484
75 -76 98 -76 94 -76 625 l0 469 120 0 120 0 0 -450z"/>
</g>
</svg>
